<mxfile host="Electron" agent="Mozilla/5.0 (Macintosh; Intel Mac OS X 10_15_7) AppleWebKit/537.36 (KHTML, like Gecko) draw.io/27.0.9 Chrome/134.0.6998.205 Electron/35.4.0 Safari/537.36" scale="1" border="0" version="27.0.9">
  <diagram name="Page-1" id="7BReFsHe6UEO880AmATz">
    <mxGraphModel dx="631" dy="694" grid="1" gridSize="10" guides="1" tooltips="1" connect="1" arrows="1" fold="1" page="1" pageScale="1" pageWidth="850" pageHeight="1100" math="0" shadow="0">
      <root>
        <mxCell id="0" />
        <mxCell id="1" parent="0" />
        <mxCell id="-x_oDkPowXnX1ukDSX_n-116" style="edgeStyle=orthogonalEdgeStyle;rounded=0;orthogonalLoop=1;jettySize=auto;html=1;entryX=0;entryY=0.5;entryDx=0;entryDy=0;strokeWidth=2;strokeColor=light-dark(#7d7d7d, #ededed);" parent="1" target="-x_oDkPowXnX1ukDSX_n-25" edge="1">
          <mxGeometry relative="1" as="geometry">
            <Array as="points">
              <mxPoint x="1500" y="85" />
            </Array>
            <mxPoint x="1500" y="80" as="sourcePoint" />
          </mxGeometry>
        </mxCell>
        <mxCell id="-x_oDkPowXnX1ukDSX_n-117" style="edgeStyle=orthogonalEdgeStyle;rounded=0;orthogonalLoop=1;jettySize=auto;html=1;exitX=0.5;exitY=1;exitDx=0;exitDy=0;exitPerimeter=0;strokeColor=#7D7D7D;strokeWidth=2;" parent="1" source="2I92U8_iT0CuXjrcCy3k-1" target="-x_oDkPowXnX1ukDSX_n-76" edge="1">
          <mxGeometry relative="1" as="geometry">
            <Array as="points">
              <mxPoint x="1479" y="300" />
              <mxPoint x="1479" y="300" />
            </Array>
            <mxPoint x="1470" y="300" as="sourcePoint" />
          </mxGeometry>
        </mxCell>
        <mxCell id="-x_oDkPowXnX1ukDSX_n-50" style="edgeStyle=orthogonalEdgeStyle;rounded=0;orthogonalLoop=1;jettySize=auto;html=1;strokeWidth=2;strokeColor=light-dark(#7d7d7d, #ededed);" parent="1" source="-x_oDkPowXnX1ukDSX_n-25" target="-x_oDkPowXnX1ukDSX_n-27" edge="1">
          <mxGeometry relative="1" as="geometry" />
        </mxCell>
        <mxCell id="-x_oDkPowXnX1ukDSX_n-25" value="&lt;div style=&quot;font-size: 13px;&quot;&gt;Pre-Processing: Data Preparation and Analysis&lt;/div&gt;" style="rounded=1;whiteSpace=wrap;html=1;fontSize=13;fontFamily=Times New Roman;fontStyle=1" parent="1" vertex="1">
          <mxGeometry x="1605" y="70" width="290" height="30" as="geometry" />
        </mxCell>
        <mxCell id="-x_oDkPowXnX1ukDSX_n-75" value="" style="group" parent="1" vertex="1" connectable="0">
          <mxGeometry x="1447.5" y="330" width="522.5" height="170" as="geometry" />
        </mxCell>
        <mxCell id="-x_oDkPowXnX1ukDSX_n-76" value="&lt;div style=&quot;font-size: 13px;&quot;&gt;&lt;br&gt;&lt;/div&gt;" style="rounded=0;whiteSpace=wrap;html=1;fontSize=13;dashed=1;fontFamily=Times New Roman;fontStyle=1" parent="-x_oDkPowXnX1ukDSX_n-75" vertex="1">
          <mxGeometry width="522.5" height="170" as="geometry" />
        </mxCell>
        <mxCell id="-x_oDkPowXnX1ukDSX_n-78" value="" style="html=1;shadow=0;dashed=0;shape=mxgraph.bootstrap.rrect;rSize=5;strokeColor=#DFDFDF;html=1;whiteSpace=wrap;fillColor=#FFFFFF;fontColor=#000000;fontFamily=Times New Roman;fontStyle=1" parent="-x_oDkPowXnX1ukDSX_n-75" vertex="1">
          <mxGeometry x="280" y="20" width="222.96" height="120" as="geometry" />
        </mxCell>
        <mxCell id="-x_oDkPowXnX1ukDSX_n-79" value="Normalization" style="html=1;shadow=0;dashed=0;shape=mxgraph.bootstrap.topButton;rSize=5;strokeColor=#82b366;fillColor=#d5e8d4;perimeter=none;whiteSpace=wrap;resizeWidth=1;align=center;spacing=10;fontFamily=Times New Roman;fontStyle=1" parent="-x_oDkPowXnX1ukDSX_n-78" vertex="1">
          <mxGeometry width="222.95999999999998" height="30" relative="1" as="geometry" />
        </mxCell>
        <mxCell id="-x_oDkPowXnX1ukDSX_n-98" value="&lt;div style=&quot;&quot;&gt;&lt;span style=&quot;background-color: initial;&quot;&gt;&lt;font face=&quot;Times New Roman&quot;&gt;&lt;b&gt;Normalization of the &lt;i&gt;Qa/Qs&lt;/i&gt; and &lt;i&gt;Lˊ/H&lt;/i&gt;&amp;nbsp;&lt;/b&gt;&lt;/font&gt;&lt;/span&gt;&lt;/div&gt;&lt;div style=&quot;&quot;&gt;&lt;span style=&quot;background-color: initial;&quot;&gt;&lt;font face=&quot;Times New Roman&quot;&gt;(eq. 6 and 7)&lt;/font&gt;&lt;/span&gt;&lt;/div&gt;" style="text;html=1;align=center;verticalAlign=middle;whiteSpace=wrap;rounded=0;" parent="-x_oDkPowXnX1ukDSX_n-78" vertex="1">
          <mxGeometry x="4.184680500000001" y="60" width="214.599" height="30" as="geometry" />
        </mxCell>
        <mxCell id="-x_oDkPowXnX1ukDSX_n-83" value="&lt;span style=&quot;color: rgba(0, 0, 0, 0); font-family: monospace; font-size: 0px; font-weight: 400; text-align: start; text-wrap: nowrap;&quot;&gt;%3CmxGraphModel%3E%3Croot%3E%3CmxCell%20id%3D%220%22%2F%3E%3CmxCell%20id%3D%221%22%20parent%3D%220%22%2F%3E%3CmxCell%20id%3D%222%22%20value%3D%22%22%20style%3D%22html%3D1%3Bshadow%3D0%3Bdashed%3D0%3Bshape%3Dmxgraph.bootstrap.rrect%3BrSize%3D5%3BstrokeColor%3D%23DFDFDF%3Bhtml%3D1%3BwhiteSpace%3Dwrap%3BfillColor%3D%23FFFFFF%3BfontColor%3D%23000000%3BfontFamily%3DTimes%20New%20Roman%3BfontStyle%3D1%22%20vertex%3D%221%22%20parent%3D%221%22%3E%3CmxGeometry%20x%3D%221650.0027272727273%22%20y%3D%22360%22%20width%3D%22145.45454545454544%22%20height%3D%22120%22%20as%3D%22geometry%22%2F%3E%3C%2FmxCell%3E%3CmxCell%20id%3D%223%22%20value%3D%22Normalization%22%20style%3D%22html%3D1%3Bshadow%3D0%3Bdashed%3D0%3Bshape%3Dmxgraph.bootstrap.topButton%3BrSize%3D5%3BstrokeColor%3Dnone%3BfillColor%3D%230085FC%3BfontColor%3D%23ffffff%3Bperimeter%3Dnone%3BwhiteSpace%3Dwrap%3BresizeWidth%3D1%3Balign%3Dcenter%3Bspacing%3D10%3BfontFamily%3DTimes%20New%20Roman%3BfontStyle%3D1%22%20vertex%3D%221%22%20parent%3D%222%22%3E%3CmxGeometry%20width%3D%22145.45454545454544%22%20height%3D%2230%22%20relative%3D%221%22%20as%3D%22geometry%22%2F%3E%3C%2FmxCell%3E%3CmxCell%20id%3D%224%22%20value%3D%22%26lt%3Bspan%20style%3D%26quot%3Bfont-family%3A%20%26amp%3Bquot%3BTimes%20New%20Roman%26amp%3Bquot%3B%3B%20font-weight%3A%20700%3B%20text-align%3A%20left%3B%26quot%3B%26gt%3BNormalization%20of%20the%26amp%3Bnbsp%3B%26lt%3B%2Fspan%26gt%3B%26lt%3Bi%20style%3D%26quot%3Bbackground-color%3A%20initial%3B%20font-family%3A%20%26amp%3Bquot%3BTimes%20New%20Roman%26amp%3Bquot%3B%3B%20text-align%3A%20left%3B%20font-size%3A%20medium%3B%26quot%3B%26gt%3B%26lt%3Bspan%20style%3D%26quot%3Bfont-size%3A%2012pt%3B%20font-family%3A%20%26amp%3Bquot%3BTimes%20New%20Roman%26amp%3Bquot%3B%2C%20serif%3B%26quot%3B%26gt%3BL%CB%8A%26lt%3B%2Fspan%26gt%3B%26lt%3B%2Fi%26gt%3B%26lt%3Bspan%20style%3D%26quot%3Bbackground-color%3A%20initial%3B%20text-align%3A%20left%3B%20font-size%3A%2012pt%3B%20font-family%3A%20%26amp%3Bquot%3BTimes%20New%20Roman%26amp%3Bquot%3B%2C%20serif%3B%26quot%3B%26gt%3B%2FH%26lt%3B%2Fspan%26gt%3B%22%20style%3D%22text%3Bhtml%3D1%3Balign%3Dcenter%3BverticalAlign%3Dmiddle%3BwhiteSpace%3Dwrap%3Brounded%3D0%3B%22%20vertex%3D%221%22%20parent%3D%222%22%3E%3CmxGeometry%20y%3D%2260%22%20width%3D%22140%22%20height%3D%2230%22%20as%3D%22geometry%22%2F%3E%3C%2FmxCell%3E%3C%2Froot%3E%3C%2FmxGraphModel%3E&lt;/span&gt;" style="html=1;shadow=0;dashed=0;shape=mxgraph.bootstrap.rrect;rSize=5;strokeColor=#DFDFDF;html=1;whiteSpace=wrap;fillColor=#FFFFFF;fontColor=#000000;fontFamily=Times New Roman;fontStyle=1" parent="-x_oDkPowXnX1ukDSX_n-75" vertex="1">
          <mxGeometry x="22.5" y="20" width="227.5" height="120" as="geometry" />
        </mxCell>
        <mxCell id="-x_oDkPowXnX1ukDSX_n-84" value="&lt;span style=&quot;font-size: 13px;&quot;&gt;Prediction&lt;/span&gt;" style="html=1;shadow=0;dashed=0;shape=mxgraph.bootstrap.topButton;rSize=5;strokeColor=#82b366;fillColor=#d5e8d4;perimeter=none;whiteSpace=wrap;resizeWidth=1;align=center;spacing=10;fontFamily=Times New Roman;fontStyle=1" parent="-x_oDkPowXnX1ukDSX_n-83" vertex="1">
          <mxGeometry width="227.5" height="30" relative="1" as="geometry" />
        </mxCell>
        <mxCell id="-x_oDkPowXnX1ukDSX_n-113" value="&lt;div style=&quot;&quot;&gt;&lt;span style=&quot;background-color: initial;&quot;&gt;&lt;font face=&quot;Times New Roman&quot;&gt;&lt;b&gt;Prediction of the &lt;i&gt;Qa/Qs&lt;/i&gt; and &lt;i&gt;Lˊ/H&lt;/i&gt;&amp;nbsp;&lt;/b&gt;&lt;/font&gt;&lt;/span&gt;&lt;/div&gt;&lt;div style=&quot;&quot;&gt;&lt;span style=&quot;background-color: initial;&quot;&gt;&lt;font face=&quot;Times New Roman&quot;&gt;(in the domain 50~100)&lt;/font&gt;&lt;/span&gt;&lt;/div&gt;" style="text;html=1;align=center;verticalAlign=middle;whiteSpace=wrap;rounded=0;" parent="-x_oDkPowXnX1ukDSX_n-83" vertex="1">
          <mxGeometry x="4.269890625000029" y="60" width="218.96875000000006" height="30" as="geometry" />
        </mxCell>
        <mxCell id="-x_oDkPowXnX1ukDSX_n-92" value="&lt;span style=&quot;font-size: 13px;&quot;&gt;&lt;span style=&quot;font-style: normal;&quot;&gt;1&lt;/span&gt;&lt;/span&gt;" style="text;html=1;align=center;verticalAlign=middle;whiteSpace=wrap;rounded=0;fontFamily=Times New Roman;fontStyle=3;rotation=0;" parent="-x_oDkPowXnX1ukDSX_n-75" vertex="1">
          <mxGeometry x="116.25000000000003" y="140" width="20" height="30" as="geometry" />
        </mxCell>
        <mxCell id="-x_oDkPowXnX1ukDSX_n-93" value="&lt;span style=&quot;font-size: 13px;&quot;&gt;2&lt;/span&gt;" style="text;html=1;align=center;verticalAlign=middle;whiteSpace=wrap;rounded=0;fontFamily=Times New Roman;fontStyle=1;rotation=0;" parent="-x_oDkPowXnX1ukDSX_n-75" vertex="1">
          <mxGeometry x="382.73" y="140" width="20" height="30" as="geometry" />
        </mxCell>
        <mxCell id="wV_0ZwVHH5HrXNF6ROUO-35" value="" style="endArrow=classicThin;html=1;rounded=0;endFill=1;fillColor=none;endWidth=5.714285714285714;entryX=-0.003;entryY=0.563;entryDx=0;entryDy=0;entryPerimeter=0;exitX=0.997;exitY=0.565;exitDx=0;exitDy=0;exitPerimeter=0;strokeWidth=2;strokeColor=light-dark(#7d7d7d, #ededed);" parent="-x_oDkPowXnX1ukDSX_n-75" source="-x_oDkPowXnX1ukDSX_n-83" target="-x_oDkPowXnX1ukDSX_n-78" edge="1">
          <mxGeometry width="50" height="50" relative="1" as="geometry">
            <mxPoint x="242.5" y="88" as="sourcePoint" />
            <mxPoint x="112.5" y="188.43430392420214" as="targetPoint" />
          </mxGeometry>
        </mxCell>
        <mxCell id="-x_oDkPowXnX1ukDSX_n-118" style="edgeStyle=orthogonalEdgeStyle;rounded=0;orthogonalLoop=1;jettySize=auto;html=1;strokeWidth=2;strokeColor=light-dark(#7d7d7d, #ededed);" parent="1" source="-x_oDkPowXnX1ukDSX_n-27" target="-x_oDkPowXnX1ukDSX_n-76" edge="1">
          <mxGeometry relative="1" as="geometry">
            <Array as="points">
              <mxPoint x="1755" y="320" />
              <mxPoint x="1755" y="320" />
            </Array>
          </mxGeometry>
        </mxCell>
        <mxCell id="-x_oDkPowXnX1ukDSX_n-27" value="-" style="rounded=0;whiteSpace=wrap;html=1;fontSize=13;dashed=1;fontFamily=Times New Roman;fontStyle=1" parent="1" vertex="1">
          <mxGeometry x="1530" y="130" width="440" height="170" as="geometry" />
        </mxCell>
        <mxCell id="-x_oDkPowXnX1ukDSX_n-34" value="" style="html=1;shadow=0;dashed=0;shape=mxgraph.bootstrap.rrect;rSize=5;strokeColor=#DFDFDF;html=1;whiteSpace=wrap;fillColor=#FFFFFF;fontColor=#000000;fontFamily=Times New Roman;fontStyle=1" parent="1" vertex="1">
          <mxGeometry x="1550" y="150" width="80" height="120" as="geometry" />
        </mxCell>
        <mxCell id="-x_oDkPowXnX1ukDSX_n-36" value="0.2" style="strokeColor=inherit;fillColor=inherit;gradientColor=inherit;fontColor=inherit;html=1;shadow=0;dashed=0;perimeter=none;whiteSpace=wrap;resizeWidth=1;align=left;spacing=10;fontFamily=Times New Roman;fontStyle=1" parent="-x_oDkPowXnX1ukDSX_n-34" vertex="1">
          <mxGeometry width="80" height="30" relative="1" as="geometry">
            <mxPoint y="30" as="offset" />
          </mxGeometry>
        </mxCell>
        <mxCell id="-x_oDkPowXnX1ukDSX_n-37" value="0.25" style="strokeColor=inherit;fillColor=inherit;gradientColor=inherit;fontColor=inherit;html=1;shadow=0;dashed=0;perimeter=none;whiteSpace=wrap;resizeWidth=1;align=left;spacing=10;fontFamily=Times New Roman;fontStyle=1" parent="-x_oDkPowXnX1ukDSX_n-34" vertex="1">
          <mxGeometry width="80" height="30" relative="1" as="geometry">
            <mxPoint y="60" as="offset" />
          </mxGeometry>
        </mxCell>
        <mxCell id="-x_oDkPowXnX1ukDSX_n-38" value="0.4" style="strokeColor=inherit;fillColor=inherit;gradientColor=inherit;fontColor=inherit;html=1;shadow=0;dashed=0;perimeter=none;whiteSpace=wrap;resizeWidth=1;align=left;spacing=10;fontFamily=Times New Roman;fontStyle=1" parent="-x_oDkPowXnX1ukDSX_n-34" vertex="1">
          <mxGeometry width="80" height="30" relative="1" as="geometry">
            <mxPoint y="90" as="offset" />
          </mxGeometry>
        </mxCell>
        <mxCell id="-x_oDkPowXnX1ukDSX_n-39" value="0.3" style="strokeColor=inherit;fillColor=inherit;gradientColor=inherit;fontColor=inherit;html=1;shadow=0;dashed=0;shape=mxgraph.bootstrap.bottomButton;rSize=5;perimeter=none;whiteSpace=wrap;resizeWidth=1;resizeHeight=0;align=left;spacing=10;fontFamily=Times New Roman;fontStyle=1" parent="-x_oDkPowXnX1ukDSX_n-34" vertex="1">
          <mxGeometry y="1" width="80" height="30" relative="1" as="geometry">
            <mxPoint y="-30" as="offset" />
          </mxGeometry>
        </mxCell>
        <mxCell id="-x_oDkPowXnX1ukDSX_n-35" value="&lt;span style=&quot;font-size: 13px;&quot;&gt;Test Size&lt;/span&gt;" style="html=1;shadow=0;dashed=0;shape=mxgraph.bootstrap.topButton;rSize=5;strokeColor=#666666;fillColor=#f5f5f5;fontColor=#333333;perimeter=none;whiteSpace=wrap;resizeWidth=1;align=center;spacing=10;fontFamily=Times New Roman;fontStyle=1" parent="-x_oDkPowXnX1ukDSX_n-34" vertex="1">
          <mxGeometry width="80" height="30" relative="1" as="geometry" />
        </mxCell>
        <mxCell id="-x_oDkPowXnX1ukDSX_n-41" value="" style="html=1;shadow=0;dashed=0;shape=mxgraph.bootstrap.rrect;rSize=5;strokeColor=#DFDFDF;html=1;whiteSpace=wrap;fillColor=#FFFFFF;fontColor=#000000;fontFamily=Times New Roman;fontStyle=1;align=center;" parent="1" vertex="1">
          <mxGeometry x="1740" y="150" width="90" height="120" as="geometry" />
        </mxCell>
        <mxCell id="-x_oDkPowXnX1ukDSX_n-43" value="&lt;a target=&quot;_blank&quot; href=&quot;https://towardsdatascience.com/gridsearchcv-for-beginners-db48a90114ee&quot; style=&quot;text-decoration-line: none; touch-action: manipulation; background-color: rgb(255, 255, 255);&quot;&gt;&lt;font face=&quot;Times New Roman&quot; style=&quot;font-size: 12px;&quot; color=&quot;#000000&quot;&gt;GridSearchCV&lt;/font&gt;&lt;/a&gt;" style="strokeColor=inherit;fillColor=inherit;gradientColor=inherit;fontColor=inherit;html=1;shadow=0;dashed=0;perimeter=none;whiteSpace=wrap;resizeWidth=1;align=center;spacing=10;fontFamily=Times New Roman;fontStyle=1" parent="-x_oDkPowXnX1ukDSX_n-41" vertex="1">
          <mxGeometry width="89.99718750000002" height="90" relative="1" as="geometry">
            <mxPoint y="30" as="offset" />
          </mxGeometry>
        </mxCell>
        <mxCell id="-x_oDkPowXnX1ukDSX_n-42" value="&lt;span style=&quot;&quot;&gt;&lt;font style=&quot;font-size: 12px;&quot; color=&quot;#000000&quot;&gt;Hyperparameter&lt;/font&gt;&lt;/span&gt;" style="html=1;shadow=0;dashed=0;shape=mxgraph.bootstrap.topButton;rSize=5;strokeColor=#666666;fillColor=#f5f5f5;fontColor=#333333;perimeter=none;whiteSpace=wrap;resizeWidth=1;align=center;spacing=10;fontFamily=Times New Roman;fontStyle=1" parent="-x_oDkPowXnX1ukDSX_n-41" vertex="1">
          <mxGeometry width="90" height="30" relative="1" as="geometry" />
        </mxCell>
        <mxCell id="-x_oDkPowXnX1ukDSX_n-52" value="&lt;span style=&quot;font-size: 13px;&quot;&gt;1&lt;/span&gt;" style="text;html=1;align=center;verticalAlign=middle;whiteSpace=wrap;rounded=0;fontFamily=Times New Roman;fontStyle=1;rotation=0;" parent="1" vertex="1">
          <mxGeometry x="1580" y="270" width="20" height="30" as="geometry" />
        </mxCell>
        <mxCell id="-x_oDkPowXnX1ukDSX_n-53" value="&lt;span style=&quot;font-size: 13px;&quot;&gt;2&lt;/span&gt;" style="text;html=1;align=center;verticalAlign=middle;whiteSpace=wrap;rounded=0;fontFamily=Times New Roman;fontStyle=1;rotation=0;" parent="1" vertex="1">
          <mxGeometry x="1675" y="270" width="20" height="30" as="geometry" />
        </mxCell>
        <mxCell id="-x_oDkPowXnX1ukDSX_n-54" value="&lt;span style=&quot;font-size: 13px;&quot;&gt;3&lt;/span&gt;" style="text;html=1;align=center;verticalAlign=middle;whiteSpace=wrap;rounded=0;fontFamily=Times New Roman;fontStyle=1;rotation=0;" parent="1" vertex="1">
          <mxGeometry x="1775" y="270" width="20" height="30" as="geometry" />
        </mxCell>
        <mxCell id="-x_oDkPowXnX1ukDSX_n-119" value="" style="group" parent="1" vertex="1" connectable="0">
          <mxGeometry x="1447.5" y="530" width="522.5" height="170" as="geometry" />
        </mxCell>
        <mxCell id="-x_oDkPowXnX1ukDSX_n-120" value="&lt;div style=&quot;font-size: 13px;&quot;&gt;&lt;br&gt;&lt;/div&gt;" style="rounded=0;whiteSpace=wrap;html=1;fontSize=13;dashed=1;fontFamily=Times New Roman;fontStyle=1" parent="-x_oDkPowXnX1ukDSX_n-119" vertex="1">
          <mxGeometry width="522.5" height="170" as="geometry" />
        </mxCell>
        <mxCell id="-x_oDkPowXnX1ukDSX_n-125" value="&lt;span style=&quot;color: rgba(0, 0, 0, 0); font-family: monospace; font-size: 0px; font-weight: 400; text-align: start; text-wrap: nowrap;&quot;&gt;%3CmxGraphModel%3E%3Croot%3E%3CmxCell%20id%3D%220%22%2F%3E%3CmxCell%20id%3D%221%22%20parent%3D%220%22%2F%3E%3CmxCell%20id%3D%222%22%20value%3D%22%22%20style%3D%22html%3D1%3Bshadow%3D0%3Bdashed%3D0%3Bshape%3Dmxgraph.bootstrap.rrect%3BrSize%3D5%3BstrokeColor%3D%23DFDFDF%3Bhtml%3D1%3BwhiteSpace%3Dwrap%3BfillColor%3D%23FFFFFF%3BfontColor%3D%23000000%3BfontFamily%3DTimes%20New%20Roman%3BfontStyle%3D1%22%20vertex%3D%221%22%20parent%3D%221%22%3E%3CmxGeometry%20x%3D%221650.0027272727273%22%20y%3D%22360%22%20width%3D%22145.45454545454544%22%20height%3D%22120%22%20as%3D%22geometry%22%2F%3E%3C%2FmxCell%3E%3CmxCell%20id%3D%223%22%20value%3D%22Normalization%22%20style%3D%22html%3D1%3Bshadow%3D0%3Bdashed%3D0%3Bshape%3Dmxgraph.bootstrap.topButton%3BrSize%3D5%3BstrokeColor%3Dnone%3BfillColor%3D%230085FC%3BfontColor%3D%23ffffff%3Bperimeter%3Dnone%3BwhiteSpace%3Dwrap%3BresizeWidth%3D1%3Balign%3Dcenter%3Bspacing%3D10%3BfontFamily%3DTimes%20New%20Roman%3BfontStyle%3D1%22%20vertex%3D%221%22%20parent%3D%222%22%3E%3CmxGeometry%20width%3D%22145.45454545454544%22%20height%3D%2230%22%20relative%3D%221%22%20as%3D%22geometry%22%2F%3E%3C%2FmxCell%3E%3CmxCell%20id%3D%224%22%20value%3D%22%26lt%3Bspan%20style%3D%26quot%3Bfont-family%3A%20%26amp%3Bquot%3BTimes%20New%20Roman%26amp%3Bquot%3B%3B%20font-weight%3A%20700%3B%20text-align%3A%20left%3B%26quot%3B%26gt%3BNormalization%20of%20the%26amp%3Bnbsp%3B%26lt%3B%2Fspan%26gt%3B%26lt%3Bi%20style%3D%26quot%3Bbackground-color%3A%20initial%3B%20font-family%3A%20%26amp%3Bquot%3BTimes%20New%20Roman%26amp%3Bquot%3B%3B%20text-align%3A%20left%3B%20font-size%3A%20medium%3B%26quot%3B%26gt%3B%26lt%3Bspan%20style%3D%26quot%3Bfont-size%3A%2012pt%3B%20font-family%3A%20%26amp%3Bquot%3BTimes%20New%20Roman%26amp%3Bquot%3B%2C%20serif%3B%26quot%3B%26gt%3BL%CB%8A%26lt%3B%2Fspan%26gt%3B%26lt%3B%2Fi%26gt%3B%26lt%3Bspan%20style%3D%26quot%3Bbackground-color%3A%20initial%3B%20text-align%3A%20left%3B%20font-size%3A%2012pt%3B%20font-family%3A%20%26amp%3Bquot%3BTimes%20New%20Roman%26amp%3Bquot%3B%2C%20serif%3B%26quot%3B%26gt%3B%2FH%26lt%3B%2Fspan%26gt%3B%22%20style%3D%22text%3Bhtml%3D1%3Balign%3Dcenter%3BverticalAlign%3Dmiddle%3BwhiteSpace%3Dwrap%3Brounded%3D0%3B%22%20vertex%3D%221%22%20parent%3D%222%22%3E%3CmxGeometry%20y%3D%2260%22%20width%3D%22140%22%20height%3D%2230%22%20as%3D%22geometry%22%2F%3E%3C%2FmxCell%3E%3C%2Froot%3E%3C%2FmxGraphModel%3E&lt;/span&gt;" style="html=1;shadow=0;dashed=0;shape=mxgraph.bootstrap.rrect;rSize=5;strokeColor=#DFDFDF;html=1;whiteSpace=wrap;fillColor=#FFFFFF;fontColor=#000000;fontFamily=Times New Roman;fontStyle=1" parent="-x_oDkPowXnX1ukDSX_n-119" vertex="1">
          <mxGeometry x="170" y="20" width="140" height="120" as="geometry" />
        </mxCell>
        <mxCell id="-x_oDkPowXnX1ukDSX_n-126" value="&lt;span style=&quot;font-size: 13px;&quot;&gt;Optimum point&lt;/span&gt;" style="html=1;shadow=0;dashed=0;shape=mxgraph.bootstrap.topButton;rSize=5;strokeColor=#6c8ebf;fillColor=#dae8fc;perimeter=none;whiteSpace=wrap;resizeWidth=1;align=center;spacing=10;fontFamily=Times New Roman;fontStyle=1" parent="-x_oDkPowXnX1ukDSX_n-125" vertex="1">
          <mxGeometry width="140.00000000000003" height="30" relative="1" as="geometry" />
        </mxCell>
        <mxCell id="-x_oDkPowXnX1ukDSX_n-133" value="&lt;div style=&quot;&quot;&gt;&lt;font style=&quot;font-size: 13px;&quot;&gt;&lt;span style=&quot;font-family: &amp;quot;Times New Roman&amp;quot;; font-weight: 700;&quot;&gt;Finding the optimum location of ABC &lt;/span&gt;&lt;span style=&quot;font-family: &amp;quot;Times New Roman&amp;quot;;&quot;&gt;(&lt;/span&gt;&lt;span style=&quot;font-family: &amp;quot;Times New Roman&amp;quot;; background-color: initial;&quot;&gt;Optimum value&lt;/span&gt;&lt;span style=&quot;background-color: initial; font-family: &amp;quot;Times New Roman&amp;quot;;&quot;&gt;&amp;nbsp;of&amp;nbsp;&lt;/span&gt;&lt;i style=&quot;background-color: initial; font-family: &amp;quot;Times New Roman&amp;quot;; text-align: start;&quot;&gt;&lt;span style=&quot;font-family: &amp;quot;Times New Roman&amp;quot;, serif;&quot;&gt;Lˊ&lt;/span&gt;&lt;/i&gt;&lt;span style=&quot;background-color: initial; text-align: start; font-family: &amp;quot;Times New Roman&amp;quot;, serif;&quot;&gt;/H)&lt;/span&gt;&lt;/font&gt;&lt;/div&gt;" style="text;html=1;align=center;verticalAlign=middle;whiteSpace=wrap;rounded=0;" parent="-x_oDkPowXnX1ukDSX_n-125" vertex="1">
          <mxGeometry x="3.2184615384615367" y="50" width="132.16615384615383" height="30" as="geometry" />
        </mxCell>
        <mxCell id="-x_oDkPowXnX1ukDSX_n-127" value="" style="html=1;shadow=0;dashed=0;shape=mxgraph.bootstrap.rrect;rSize=5;strokeColor=#DFDFDF;html=1;whiteSpace=wrap;fillColor=#FFFFFF;fontColor=#000000;fontFamily=Times New Roman;fontStyle=1;align=center;" parent="-x_oDkPowXnX1ukDSX_n-119" vertex="1">
          <mxGeometry x="332.5" y="20" width="167.96" height="120" as="geometry" />
        </mxCell>
        <mxCell id="-x_oDkPowXnX1ukDSX_n-128" value="&lt;span style=&quot;font-size: 13px;&quot;&gt;Superior Model&lt;/span&gt;" style="html=1;shadow=0;dashed=0;shape=mxgraph.bootstrap.topButton;rSize=5;strokeColor=#6c8ebf;fillColor=#dae8fc;perimeter=none;whiteSpace=wrap;resizeWidth=1;align=center;spacing=10;fontFamily=Times New Roman;fontStyle=1" parent="-x_oDkPowXnX1ukDSX_n-127" vertex="1">
          <mxGeometry width="167.96" height="30" relative="1" as="geometry" />
        </mxCell>
        <mxCell id="-x_oDkPowXnX1ukDSX_n-136" value="&lt;div style=&quot;&quot;&gt;&lt;span style=&quot;font-family: &amp;quot;Times New Roman&amp;quot;; font-weight: 700;&quot;&gt;Checking the Qa/Qs and &lt;i&gt;Lˊ/H&lt;/i&gt; importance weight on decision-making&amp;nbsp;&lt;/span&gt;&lt;/div&gt;&lt;div style=&quot;&quot;&gt;&lt;span style=&quot;font-family: &amp;quot;Times New Roman&amp;quot;; font-size: 13px; background-color: initial;&quot;&gt;(eq. 9 - 10)&lt;/span&gt;&lt;br&gt;&lt;/div&gt;" style="text;html=1;align=center;verticalAlign=middle;whiteSpace=wrap;rounded=0;" parent="-x_oDkPowXnX1ukDSX_n-127" vertex="1">
          <mxGeometry x="2.46" y="40" width="165.5" height="70" as="geometry" />
        </mxCell>
        <mxCell id="-x_oDkPowXnX1ukDSX_n-130" value="&lt;span style=&quot;font-size: 13px;&quot;&gt;1&lt;/span&gt;" style="text;html=1;align=center;verticalAlign=middle;whiteSpace=wrap;rounded=0;fontFamily=Times New Roman;fontStyle=1;rotation=0;" parent="-x_oDkPowXnX1ukDSX_n-119" vertex="1">
          <mxGeometry x="73.01" y="140" width="20" height="30" as="geometry" />
        </mxCell>
        <mxCell id="-x_oDkPowXnX1ukDSX_n-132" value="&lt;span style=&quot;font-size: 13px;&quot;&gt;3&lt;/span&gt;" style="text;html=1;align=center;verticalAlign=middle;whiteSpace=wrap;rounded=0;fontFamily=Times New Roman;fontStyle=1;rotation=0;" parent="-x_oDkPowXnX1ukDSX_n-119" vertex="1">
          <mxGeometry x="406.99" y="140" width="20" height="30" as="geometry" />
        </mxCell>
        <mxCell id="01fc5HzPbgNm9N6bJ543-18" value="&lt;span style=&quot;color: rgba(0, 0, 0, 0); font-family: monospace; font-size: 0px; font-weight: 400; text-align: start; text-wrap: nowrap;&quot;&gt;%3CmxGraphModel%3E%3Croot%3E%3CmxCell%20id%3D%220%22%2F%3E%3CmxCell%20id%3D%221%22%20parent%3D%220%22%2F%3E%3CmxCell%20id%3D%222%22%20value%3D%22%22%20style%3D%22html%3D1%3Bshadow%3D0%3Bdashed%3D0%3Bshape%3Dmxgraph.bootstrap.rrect%3BrSize%3D5%3BstrokeColor%3D%23DFDFDF%3Bhtml%3D1%3BwhiteSpace%3Dwrap%3BfillColor%3D%23FFFFFF%3BfontColor%3D%23000000%3BfontFamily%3DTimes%20New%20Roman%3BfontStyle%3D1%22%20vertex%3D%221%22%20parent%3D%221%22%3E%3CmxGeometry%20x%3D%221650.0027272727273%22%20y%3D%22360%22%20width%3D%22145.45454545454544%22%20height%3D%22120%22%20as%3D%22geometry%22%2F%3E%3C%2FmxCell%3E%3CmxCell%20id%3D%223%22%20value%3D%22Normalization%22%20style%3D%22html%3D1%3Bshadow%3D0%3Bdashed%3D0%3Bshape%3Dmxgraph.bootstrap.topButton%3BrSize%3D5%3BstrokeColor%3Dnone%3BfillColor%3D%230085FC%3BfontColor%3D%23ffffff%3Bperimeter%3Dnone%3BwhiteSpace%3Dwrap%3BresizeWidth%3D1%3Balign%3Dcenter%3Bspacing%3D10%3BfontFamily%3DTimes%20New%20Roman%3BfontStyle%3D1%22%20vertex%3D%221%22%20parent%3D%222%22%3E%3CmxGeometry%20width%3D%22145.45454545454544%22%20height%3D%2230%22%20relative%3D%221%22%20as%3D%22geometry%22%2F%3E%3C%2FmxCell%3E%3CmxCell%20id%3D%224%22%20value%3D%22%26lt%3Bspan%20style%3D%26quot%3Bfont-family%3A%20%26amp%3Bquot%3BTimes%20New%20Roman%26amp%3Bquot%3B%3B%20font-weight%3A%20700%3B%20text-align%3A%20left%3B%26quot%3B%26gt%3BNormalization%20of%20the%26amp%3Bnbsp%3B%26lt%3B%2Fspan%26gt%3B%26lt%3Bi%20style%3D%26quot%3Bbackground-color%3A%20initial%3B%20font-family%3A%20%26amp%3Bquot%3BTimes%20New%20Roman%26amp%3Bquot%3B%3B%20text-align%3A%20left%3B%20font-size%3A%20medium%3B%26quot%3B%26gt%3B%26lt%3Bspan%20style%3D%26quot%3Bfont-size%3A%2012pt%3B%20font-family%3A%20%26amp%3Bquot%3BTimes%20New%20Roman%26amp%3Bquot%3B%2C%20serif%3B%26quot%3B%26gt%3BL%CB%8A%26lt%3B%2Fspan%26gt%3B%26lt%3B%2Fi%26gt%3B%26lt%3Bspan%20style%3D%26quot%3Bbackground-color%3A%20initial%3B%20text-align%3A%20left%3B%20font-size%3A%2012pt%3B%20font-family%3A%20%26amp%3Bquot%3BTimes%20New%20Roman%26amp%3Bquot%3B%2C%20serif%3B%26quot%3B%26gt%3B%2FH%26lt%3B%2Fspan%26gt%3B%22%20style%3D%22text%3Bhtml%3D1%3Balign%3Dcenter%3BverticalAlign%3Dmiddle%3BwhiteSpace%3Dwrap%3Brounded%3D0%3B%22%20vertex%3D%221%22%20parent%3D%222%22%3E%3CmxGeometry%20y%3D%2260%22%20width%3D%22140%22%20height%3D%2230%22%20as%3D%22geometry%22%2F%3E%3C%2FmxCell%3E%3C%2Froot%3E%3C%2FmxGraphModel%3E&lt;/span&gt;" style="html=1;shadow=0;dashed=0;shape=mxgraph.bootstrap.rrect;rSize=5;strokeColor=#DFDFDF;html=1;whiteSpace=wrap;fillColor=#FFFFFF;fontColor=#000000;fontFamily=Times New Roman;fontStyle=1" parent="-x_oDkPowXnX1ukDSX_n-119" vertex="1">
          <mxGeometry x="22.49999999999989" y="20" width="120" height="120" as="geometry" />
        </mxCell>
        <mxCell id="01fc5HzPbgNm9N6bJ543-19" value="&lt;span style=&quot;font-size: 13px;&quot;&gt;Optimization&lt;/span&gt;" style="html=1;shadow=0;dashed=0;shape=mxgraph.bootstrap.topButton;rSize=5;strokeColor=#6c8ebf;fillColor=#dae8fc;perimeter=none;whiteSpace=wrap;resizeWidth=1;align=center;spacing=10;fontFamily=Times New Roman;fontStyle=1" parent="01fc5HzPbgNm9N6bJ543-18" vertex="1">
          <mxGeometry width="120.00000000000003" height="30" relative="1" as="geometry" />
        </mxCell>
        <mxCell id="01fc5HzPbgNm9N6bJ543-20" value="&lt;div style=&quot;&quot;&gt;&lt;font face=&quot;Times New Roman&quot;&gt;&lt;span style=&quot;font-size: 13px;&quot;&gt;&lt;b&gt;Calculation of the decision score&amp;nbsp;&lt;/b&gt;&lt;/span&gt;&lt;/font&gt;&lt;/div&gt;&lt;div style=&quot;&quot;&gt;&lt;font face=&quot;Times New Roman&quot;&gt;&lt;span style=&quot;font-size: 13px;&quot;&gt;(eq. 8)&lt;/span&gt;&lt;/font&gt;&lt;br&gt;&lt;/div&gt;" style="text;html=1;align=center;verticalAlign=middle;whiteSpace=wrap;rounded=0;" parent="01fc5HzPbgNm9N6bJ543-18" vertex="1">
          <mxGeometry x="2.758681318681317" y="50" width="113.28527472527472" height="30" as="geometry" />
        </mxCell>
        <mxCell id="01fc5HzPbgNm9N6bJ543-21" value="&lt;span style=&quot;font-size: 13px;&quot;&gt;2&lt;/span&gt;" style="text;html=1;align=center;verticalAlign=middle;whiteSpace=wrap;rounded=0;fontFamily=Times New Roman;fontStyle=1;rotation=0;" parent="-x_oDkPowXnX1ukDSX_n-119" vertex="1">
          <mxGeometry x="240.51" y="140" width="20" height="30" as="geometry" />
        </mxCell>
        <mxCell id="wV_0ZwVHH5HrXNF6ROUO-29" value="" style="endArrow=classicThin;html=1;rounded=0;endFill=1;fillColor=none;endWidth=5.714285714285714;strokeWidth=2;strokeColor=light-dark(#7d7d7d, #ededed);entryX=-0.003;entryY=0.501;entryDx=0;entryDy=0;entryPerimeter=0;" parent="-x_oDkPowXnX1ukDSX_n-119" edge="1" target="-x_oDkPowXnX1ukDSX_n-125">
          <mxGeometry width="50" height="50" relative="1" as="geometry">
            <mxPoint x="142.5" y="80" as="sourcePoint" />
            <mxPoint x="168.5" y="80" as="targetPoint" />
            <Array as="points" />
          </mxGeometry>
        </mxCell>
        <mxCell id="01fc5HzPbgNm9N6bJ543-22" value="" style="endArrow=classicThin;html=1;rounded=0;endFill=1;fillColor=none;endWidth=5.714285714285714;exitX=1.002;exitY=0.501;exitDx=0;exitDy=0;exitPerimeter=0;strokeWidth=2;strokeColor=light-dark(#7d7d7d, #ededed);" parent="-x_oDkPowXnX1ukDSX_n-119" source="-x_oDkPowXnX1ukDSX_n-125" edge="1">
          <mxGeometry width="50" height="50" relative="1" as="geometry">
            <mxPoint x="312.5" y="80" as="sourcePoint" />
            <mxPoint x="332.5" y="79.95000000000005" as="targetPoint" />
          </mxGeometry>
        </mxCell>
        <mxCell id="-x_oDkPowXnX1ukDSX_n-135" value="" style="edgeStyle=orthogonalEdgeStyle;rounded=0;orthogonalLoop=1;jettySize=auto;html=1;strokeWidth=2;strokeColor=light-dark(#7d7d7d, #ededed);" parent="1" source="-x_oDkPowXnX1ukDSX_n-76" target="-x_oDkPowXnX1ukDSX_n-120" edge="1">
          <mxGeometry relative="1" as="geometry" />
        </mxCell>
        <mxCell id="-x_oDkPowXnX1ukDSX_n-29" value="" style="html=1;shadow=0;dashed=0;shape=mxgraph.bootstrap.rrect;rSize=5;strokeColor=#DFDFDF;html=1;whiteSpace=wrap;fillColor=#FFFFFF;fontColor=#000000;fontFamily=Times New Roman;fontStyle=1" parent="1" vertex="1">
          <mxGeometry x="1650" y="150" width="70" height="120" as="geometry" />
        </mxCell>
        <mxCell id="-x_oDkPowXnX1ukDSX_n-31" value="Random Forest" style="strokeColor=inherit;fillColor=inherit;gradientColor=inherit;fontColor=inherit;html=1;shadow=0;dashed=0;perimeter=none;whiteSpace=wrap;resizeWidth=1;align=left;spacing=10;fontFamily=Times New Roman;fontStyle=1" parent="-x_oDkPowXnX1ukDSX_n-29" vertex="1">
          <mxGeometry width="70" height="30" relative="1" as="geometry">
            <mxPoint y="30" as="offset" />
          </mxGeometry>
        </mxCell>
        <mxCell id="-x_oDkPowXnX1ukDSX_n-32" value="XGBoost" style="strokeColor=inherit;fillColor=inherit;gradientColor=inherit;fontColor=inherit;html=1;shadow=0;dashed=0;perimeter=none;whiteSpace=wrap;resizeWidth=1;align=left;spacing=10;fontFamily=Times New Roman;fontStyle=1" parent="-x_oDkPowXnX1ukDSX_n-29" vertex="1">
          <mxGeometry width="70" height="30" relative="1" as="geometry">
            <mxPoint y="60" as="offset" />
          </mxGeometry>
        </mxCell>
        <mxCell id="-x_oDkPowXnX1ukDSX_n-33" value="SVR" style="strokeColor=inherit;fillColor=inherit;gradientColor=inherit;fontColor=inherit;html=1;shadow=0;dashed=0;shape=mxgraph.bootstrap.bottomButton;rSize=5;perimeter=none;whiteSpace=wrap;resizeWidth=1;resizeHeight=0;align=left;spacing=10;fontFamily=Times New Roman;fontStyle=1" parent="-x_oDkPowXnX1ukDSX_n-29" vertex="1">
          <mxGeometry y="1" width="70" height="30" relative="1" as="geometry">
            <mxPoint y="-30" as="offset" />
          </mxGeometry>
        </mxCell>
        <mxCell id="-x_oDkPowXnX1ukDSX_n-30" value="Models" style="html=1;shadow=0;dashed=0;shape=mxgraph.bootstrap.topButton;rSize=5;strokeColor=#666666;fillColor=#f5f5f5;fontColor=#333333;perimeter=none;whiteSpace=wrap;resizeWidth=1;align=center;spacing=10;fontFamily=Times New Roman;fontStyle=1" parent="-x_oDkPowXnX1ukDSX_n-29" vertex="1">
          <mxGeometry width="70" height="30" relative="1" as="geometry" />
        </mxCell>
        <mxCell id="01fc5HzPbgNm9N6bJ543-7" value="" style="html=1;shadow=0;dashed=0;shape=mxgraph.bootstrap.rrect;rSize=5;strokeColor=#DFDFDF;html=1;whiteSpace=wrap;fillColor=#FFFFFF;fontColor=#000000;fontFamily=Times New Roman;fontStyle=1;align=center;" parent="1" vertex="1">
          <mxGeometry x="1850" y="150" width="100" height="120" as="geometry" />
        </mxCell>
        <mxCell id="01fc5HzPbgNm9N6bJ543-8" value="Selecting the best test size and model based on the metrics" style="strokeColor=inherit;fillColor=inherit;gradientColor=inherit;fontColor=inherit;html=1;shadow=0;dashed=0;perimeter=none;whiteSpace=wrap;resizeWidth=1;align=center;spacing=10;fontFamily=Times New Roman;fontStyle=1" parent="01fc5HzPbgNm9N6bJ543-7" vertex="1">
          <mxGeometry width="99.99687500000003" height="90" relative="1" as="geometry">
            <mxPoint y="30" as="offset" />
          </mxGeometry>
        </mxCell>
        <mxCell id="01fc5HzPbgNm9N6bJ543-9" value="&lt;span style=&quot;font-size: 13px;&quot;&gt;Superior Model&lt;/span&gt;" style="html=1;shadow=0;dashed=0;shape=mxgraph.bootstrap.topButton;rSize=5;strokeColor=#666666;fillColor=#f5f5f5;fontColor=#333333;perimeter=none;whiteSpace=wrap;resizeWidth=1;align=center;spacing=10;fontFamily=Times New Roman;fontStyle=1" parent="01fc5HzPbgNm9N6bJ543-7" vertex="1">
          <mxGeometry width="100.00000000000001" height="30" relative="1" as="geometry" />
        </mxCell>
        <mxCell id="01fc5HzPbgNm9N6bJ543-10" value="&lt;span style=&quot;font-size: 13px;&quot;&gt;4&lt;/span&gt;" style="text;html=1;align=center;verticalAlign=middle;whiteSpace=wrap;rounded=0;fontFamily=Times New Roman;fontStyle=1;rotation=0;" parent="1" vertex="1">
          <mxGeometry x="1890" y="270" width="20" height="30" as="geometry" />
        </mxCell>
        <mxCell id="01fc5HzPbgNm9N6bJ543-14" value="" style="endArrow=classicThin;html=1;rounded=0;endFill=1;fillColor=none;endWidth=5.714285714285714;entryX=0.002;entryY=-0.005;entryDx=0;entryDy=0;entryPerimeter=0;strokeWidth=2;strokeColor=light-dark(#7d7d7d, #ededed);" parent="1" target="-x_oDkPowXnX1ukDSX_n-32" edge="1">
          <mxGeometry width="50" height="50" relative="1" as="geometry">
            <mxPoint x="1630" y="210" as="sourcePoint" />
            <mxPoint x="1767.27" y="252.53438113948891" as="targetPoint" />
          </mxGeometry>
        </mxCell>
        <mxCell id="01fc5HzPbgNm9N6bJ543-15" value="" style="endArrow=classicThin;html=1;rounded=0;endFill=1;fillColor=none;endWidth=5.714285714285714;exitX=1.003;exitY=1.003;exitDx=0;exitDy=0;exitPerimeter=0;strokeWidth=2;strokeColor=light-dark(#7d7d7d, #ededed);" parent="1" source="-x_oDkPowXnX1ukDSX_n-31" edge="1">
          <mxGeometry width="50" height="50" relative="1" as="geometry">
            <mxPoint x="1730" y="270.00000000000006" as="sourcePoint" />
            <mxPoint x="1740" y="210" as="targetPoint" />
          </mxGeometry>
        </mxCell>
        <mxCell id="01fc5HzPbgNm9N6bJ543-16" value="" style="endArrow=classicThin;html=1;rounded=0;endFill=1;fillColor=none;endWidth=5.714285714285714;exitX=1.003;exitY=1.003;exitDx=0;exitDy=0;exitPerimeter=0;strokeWidth=2;strokeColor=light-dark(#7d7d7d, #ededed);" parent="1" edge="1">
          <mxGeometry width="50" height="50" relative="1" as="geometry">
            <mxPoint x="1830" y="209.86" as="sourcePoint" />
            <mxPoint x="1850" y="209.86" as="targetPoint" />
          </mxGeometry>
        </mxCell>
        <mxCell id="2I92U8_iT0CuXjrcCy3k-1" value="&lt;span style=&quot;color: rgb(51, 51, 51); font-family: &amp;quot;Times New Roman&amp;quot;; font-size: 13px; font-weight: 700;&quot;&gt;Dataset&lt;/span&gt;" style="shape=cylinder3;whiteSpace=wrap;html=1;boundedLbl=1;backgroundOutline=1;size=15;fillColor=#f5f5f5;fontColor=#333333;strokeColor=#666666;" vertex="1" parent="1">
          <mxGeometry x="1447.5" y="60" width="62.5" height="220" as="geometry" />
        </mxCell>
        <mxCell id="2I92U8_iT0CuXjrcCy3k-2" value="&lt;span style=&quot;font-family: &amp;quot;Times New Roman&amp;quot;; font-size: 13px; font-weight: 700;&quot;&gt;ML development box&lt;/span&gt;" style="rounded=1;whiteSpace=wrap;html=1;fillColor=#f5f5f5;fontColor=#333333;strokeColor=#666666;" vertex="1" parent="1">
          <mxGeometry x="1820" y="120" width="140" height="20" as="geometry" />
        </mxCell>
        <mxCell id="2I92U8_iT0CuXjrcCy3k-4" value="&lt;span style=&quot;color: rgb(0, 0, 0); font-family: &amp;quot;Times New Roman&amp;quot;; font-size: 13px; font-weight: 700;&quot;&gt;Scenario prediction box&lt;/span&gt;" style="rounded=1;whiteSpace=wrap;html=1;fillColor=#d5e8d4;strokeColor=#82b366;" vertex="1" parent="1">
          <mxGeometry x="1820" y="320" width="140" height="20" as="geometry" />
        </mxCell>
        <mxCell id="2I92U8_iT0CuXjrcCy3k-5" value="&lt;span style=&quot;font-family: &amp;quot;Times New Roman&amp;quot;; font-size: 13px; font-weight: 700;&quot;&gt;Decision making box&lt;/span&gt;" style="rounded=1;whiteSpace=wrap;html=1;fillColor=#dae8fc;strokeColor=#6c8ebf;" vertex="1" parent="1">
          <mxGeometry x="1820" y="520" width="140" height="20" as="geometry" />
        </mxCell>
      </root>
    </mxGraphModel>
  </diagram>
</mxfile>
